<mxfile host="app.diagrams.net" modified="2023-07-04T18:17:38.163Z" agent="5.0 (Windows NT 10.0; Win64; x64) AppleWebKit/537.36 (KHTML, like Gecko) Chrome/114.0.0.0 Safari/537.36" etag="5EHyV11e3kmXSLeW6k9s" version="20.2.6" type="github">
  <diagram name="Page-1" id="BwCBE3sM1tf6ht_1rbH2">
    <mxGraphModel dx="606" dy="546" grid="1" gridSize="10" guides="1" tooltips="1" connect="1" arrows="0" fold="1" page="1" pageScale="1" pageWidth="1169" pageHeight="827" math="0" shadow="0">
      <root>
        <mxCell id="0" />
        <mxCell id="1" parent="0" />
        <mxCell id="8h7upjz-o76JEEFLU-vD-1" value="" style="rounded=0;whiteSpace=wrap;html=1;" parent="1" vertex="1">
          <mxGeometry x="420" y="190" width="360" height="320" as="geometry" />
        </mxCell>
        <mxCell id="8h7upjz-o76JEEFLU-vD-13" value="" style="group" parent="1" vertex="1" connectable="0">
          <mxGeometry x="120" y="280" width="40" height="70" as="geometry" />
        </mxCell>
        <mxCell id="8h7upjz-o76JEEFLU-vD-5" value="" style="shape=hexagon;perimeter=hexagonPerimeter2;whiteSpace=wrap;html=1;size=0.25" parent="8h7upjz-o76JEEFLU-vD-13" vertex="1">
          <mxGeometry x="10" width="20" height="10" as="geometry" />
        </mxCell>
        <mxCell id="8h7upjz-o76JEEFLU-vD-7" value="" style="shape=hexagon;perimeter=hexagonPerimeter2;whiteSpace=wrap;html=1;size=0.25;rotation=90;" parent="8h7upjz-o76JEEFLU-vD-13" vertex="1">
          <mxGeometry x="-5" y="15" width="20" height="10" as="geometry" />
        </mxCell>
        <mxCell id="8h7upjz-o76JEEFLU-vD-8" value="" style="shape=hexagon;perimeter=hexagonPerimeter2;whiteSpace=wrap;html=1;size=0.25;rotation=90;" parent="8h7upjz-o76JEEFLU-vD-13" vertex="1">
          <mxGeometry x="-5" y="44" width="20" height="10" as="geometry" />
        </mxCell>
        <mxCell id="8h7upjz-o76JEEFLU-vD-9" value="" style="shape=hexagon;perimeter=hexagonPerimeter2;whiteSpace=wrap;html=1;size=0.25;rotation=90;" parent="8h7upjz-o76JEEFLU-vD-13" vertex="1">
          <mxGeometry x="25" y="15" width="20" height="10" as="geometry" />
        </mxCell>
        <mxCell id="8h7upjz-o76JEEFLU-vD-10" value="" style="shape=hexagon;perimeter=hexagonPerimeter2;whiteSpace=wrap;html=1;size=0.25" parent="8h7upjz-o76JEEFLU-vD-13" vertex="1">
          <mxGeometry x="10" y="60" width="20" height="10" as="geometry" />
        </mxCell>
        <mxCell id="8h7upjz-o76JEEFLU-vD-11" value="" style="shape=hexagon;perimeter=hexagonPerimeter2;whiteSpace=wrap;html=1;size=0.25;rotation=90;" parent="8h7upjz-o76JEEFLU-vD-13" vertex="1">
          <mxGeometry x="25" y="44" width="20" height="10" as="geometry" />
        </mxCell>
        <mxCell id="8h7upjz-o76JEEFLU-vD-12" value="" style="shape=hexagon;perimeter=hexagonPerimeter2;whiteSpace=wrap;html=1;size=0.25" parent="8h7upjz-o76JEEFLU-vD-13" vertex="1">
          <mxGeometry x="10" y="30" width="20" height="10" as="geometry" />
        </mxCell>
        <mxCell id="8h7upjz-o76JEEFLU-vD-34" value="" style="group" parent="1" vertex="1" connectable="0">
          <mxGeometry x="595" y="240" width="120" height="150" as="geometry" />
        </mxCell>
        <mxCell id="8h7upjz-o76JEEFLU-vD-30" value="&lt;font size=&quot;1&quot;&gt;&lt;b style=&quot;font-size: 20px;&quot;&gt;BANK-NR&lt;/b&gt;&lt;/font&gt;" style="text;html=1;align=center;verticalAlign=middle;resizable=0;points=[];autosize=1;strokeColor=none;fillColor=none;" parent="8h7upjz-o76JEEFLU-vD-34" vertex="1">
          <mxGeometry width="120" height="40" as="geometry" />
        </mxCell>
        <mxCell id="8h7upjz-o76JEEFLU-vD-33" value="" style="group" parent="8h7upjz-o76JEEFLU-vD-34" vertex="1" connectable="0">
          <mxGeometry x="5" y="40" width="110" height="110" as="geometry" />
        </mxCell>
        <mxCell id="8h7upjz-o76JEEFLU-vD-32" value="" style="whiteSpace=wrap;html=1;aspect=fixed;" parent="8h7upjz-o76JEEFLU-vD-33" vertex="1">
          <mxGeometry width="110" height="110" as="geometry" />
        </mxCell>
        <mxCell id="8h7upjz-o76JEEFLU-vD-14" value="" style="group" parent="8h7upjz-o76JEEFLU-vD-33" vertex="1" connectable="0">
          <mxGeometry x="60" y="20" width="40" height="70" as="geometry" />
        </mxCell>
        <mxCell id="8h7upjz-o76JEEFLU-vD-15" value="" style="shape=hexagon;perimeter=hexagonPerimeter2;whiteSpace=wrap;html=1;size=0.25" parent="8h7upjz-o76JEEFLU-vD-14" vertex="1">
          <mxGeometry x="10" width="20" height="10" as="geometry" />
        </mxCell>
        <mxCell id="8h7upjz-o76JEEFLU-vD-16" value="" style="shape=hexagon;perimeter=hexagonPerimeter2;whiteSpace=wrap;html=1;size=0.25;rotation=90;" parent="8h7upjz-o76JEEFLU-vD-14" vertex="1">
          <mxGeometry x="-5" y="15" width="20" height="10" as="geometry" />
        </mxCell>
        <mxCell id="8h7upjz-o76JEEFLU-vD-17" value="" style="shape=hexagon;perimeter=hexagonPerimeter2;whiteSpace=wrap;html=1;size=0.25;rotation=90;" parent="8h7upjz-o76JEEFLU-vD-14" vertex="1">
          <mxGeometry x="-5" y="44" width="20" height="10" as="geometry" />
        </mxCell>
        <mxCell id="8h7upjz-o76JEEFLU-vD-18" value="" style="shape=hexagon;perimeter=hexagonPerimeter2;whiteSpace=wrap;html=1;size=0.25;rotation=90;" parent="8h7upjz-o76JEEFLU-vD-14" vertex="1">
          <mxGeometry x="25" y="15" width="20" height="10" as="geometry" />
        </mxCell>
        <mxCell id="8h7upjz-o76JEEFLU-vD-19" value="" style="shape=hexagon;perimeter=hexagonPerimeter2;whiteSpace=wrap;html=1;size=0.25" parent="8h7upjz-o76JEEFLU-vD-14" vertex="1">
          <mxGeometry x="10" y="60" width="20" height="10" as="geometry" />
        </mxCell>
        <mxCell id="8h7upjz-o76JEEFLU-vD-20" value="" style="shape=hexagon;perimeter=hexagonPerimeter2;whiteSpace=wrap;html=1;size=0.25;rotation=90;" parent="8h7upjz-o76JEEFLU-vD-14" vertex="1">
          <mxGeometry x="25" y="44" width="20" height="10" as="geometry" />
        </mxCell>
        <mxCell id="8h7upjz-o76JEEFLU-vD-21" value="" style="shape=hexagon;perimeter=hexagonPerimeter2;whiteSpace=wrap;html=1;size=0.25" parent="8h7upjz-o76JEEFLU-vD-14" vertex="1">
          <mxGeometry x="10" y="30" width="20" height="10" as="geometry" />
        </mxCell>
        <mxCell id="8h7upjz-o76JEEFLU-vD-22" value="" style="group" parent="8h7upjz-o76JEEFLU-vD-33" vertex="1" connectable="0">
          <mxGeometry x="10" y="20" width="40" height="70" as="geometry" />
        </mxCell>
        <mxCell id="8h7upjz-o76JEEFLU-vD-23" value="" style="shape=hexagon;perimeter=hexagonPerimeter2;whiteSpace=wrap;html=1;size=0.25" parent="8h7upjz-o76JEEFLU-vD-22" vertex="1">
          <mxGeometry x="10" width="20" height="10" as="geometry" />
        </mxCell>
        <mxCell id="8h7upjz-o76JEEFLU-vD-24" value="" style="shape=hexagon;perimeter=hexagonPerimeter2;whiteSpace=wrap;html=1;size=0.25;rotation=90;" parent="8h7upjz-o76JEEFLU-vD-22" vertex="1">
          <mxGeometry x="-5" y="15" width="20" height="10" as="geometry" />
        </mxCell>
        <mxCell id="8h7upjz-o76JEEFLU-vD-25" value="" style="shape=hexagon;perimeter=hexagonPerimeter2;whiteSpace=wrap;html=1;size=0.25;rotation=90;" parent="8h7upjz-o76JEEFLU-vD-22" vertex="1">
          <mxGeometry x="-5" y="44" width="20" height="10" as="geometry" />
        </mxCell>
        <mxCell id="8h7upjz-o76JEEFLU-vD-26" value="" style="shape=hexagon;perimeter=hexagonPerimeter2;whiteSpace=wrap;html=1;size=0.25;rotation=90;" parent="8h7upjz-o76JEEFLU-vD-22" vertex="1">
          <mxGeometry x="25" y="15" width="20" height="10" as="geometry" />
        </mxCell>
        <mxCell id="8h7upjz-o76JEEFLU-vD-27" value="" style="shape=hexagon;perimeter=hexagonPerimeter2;whiteSpace=wrap;html=1;size=0.25" parent="8h7upjz-o76JEEFLU-vD-22" vertex="1">
          <mxGeometry x="10" y="60" width="20" height="10" as="geometry" />
        </mxCell>
        <mxCell id="8h7upjz-o76JEEFLU-vD-28" value="" style="shape=hexagon;perimeter=hexagonPerimeter2;whiteSpace=wrap;html=1;size=0.25;rotation=90;" parent="8h7upjz-o76JEEFLU-vD-22" vertex="1">
          <mxGeometry x="25" y="44" width="20" height="10" as="geometry" />
        </mxCell>
        <mxCell id="8h7upjz-o76JEEFLU-vD-29" value="" style="shape=hexagon;perimeter=hexagonPerimeter2;whiteSpace=wrap;html=1;size=0.25" parent="8h7upjz-o76JEEFLU-vD-22" vertex="1">
          <mxGeometry x="10" y="30" width="20" height="10" as="geometry" />
        </mxCell>
        <mxCell id="8h7upjz-o76JEEFLU-vD-38" value="" style="group;rotation=90;" parent="1" vertex="1" connectable="0">
          <mxGeometry x="720" y="340" width="40" height="40" as="geometry" />
        </mxCell>
        <mxCell id="8h7upjz-o76JEEFLU-vD-37" value="" style="whiteSpace=wrap;html=1;aspect=fixed;rotation=90;" parent="8h7upjz-o76JEEFLU-vD-38" vertex="1">
          <mxGeometry width="40" height="40" as="geometry" />
        </mxCell>
        <mxCell id="8h7upjz-o76JEEFLU-vD-36" value="" style="triangle;whiteSpace=wrap;html=1;fillStyle=solid;fillColor=#FFFFFF;rotation=90;" parent="8h7upjz-o76JEEFLU-vD-38" vertex="1">
          <mxGeometry width="40" height="40" as="geometry" />
        </mxCell>
        <mxCell id="8h7upjz-o76JEEFLU-vD-42" style="edgeStyle=orthogonalEdgeStyle;rounded=0;orthogonalLoop=1;jettySize=auto;html=1;exitX=0.5;exitY=0;exitDx=0;exitDy=0;entryX=0;entryY=0.5;entryDx=0;entryDy=0;" parent="8h7upjz-o76JEEFLU-vD-38" source="8h7upjz-o76JEEFLU-vD-36" target="8h7upjz-o76JEEFLU-vD-36" edge="1">
          <mxGeometry relative="1" as="geometry" />
        </mxCell>
        <mxCell id="8h7upjz-o76JEEFLU-vD-39" value="" style="group;rotation=-90;" parent="1" vertex="1" connectable="0">
          <mxGeometry x="720" y="290" width="40" height="40" as="geometry" />
        </mxCell>
        <mxCell id="8h7upjz-o76JEEFLU-vD-40" value="" style="whiteSpace=wrap;html=1;aspect=fixed;rotation=-90;" parent="8h7upjz-o76JEEFLU-vD-39" vertex="1">
          <mxGeometry width="40" height="40" as="geometry" />
        </mxCell>
        <mxCell id="8h7upjz-o76JEEFLU-vD-41" value="" style="triangle;whiteSpace=wrap;html=1;fillStyle=solid;fillColor=#FFFFFF;rotation=-90;" parent="8h7upjz-o76JEEFLU-vD-39" vertex="1">
          <mxGeometry width="40" height="40" as="geometry" />
        </mxCell>
        <mxCell id="8h7upjz-o76JEEFLU-vD-43" value="&lt;font size=&quot;1&quot;&gt;&lt;b style=&quot;font-size: 20px;&quot;&gt;MODE&lt;/b&gt;&lt;/font&gt;" style="text;html=1;align=center;verticalAlign=middle;resizable=0;points=[];autosize=1;strokeColor=none;fillColor=none;" parent="1" vertex="1">
          <mxGeometry x="470" y="240" width="80" height="40" as="geometry" />
        </mxCell>
        <mxCell id="8h7upjz-o76JEEFLU-vD-44" value="&lt;b&gt;&lt;font style=&quot;font-size: 15px;&quot;&gt;PRESETS&lt;/font&gt;&lt;/b&gt;" style="rounded=0;whiteSpace=wrap;html=1;" parent="1" vertex="1">
          <mxGeometry x="200" y="200" width="120" height="40" as="geometry" />
        </mxCell>
        <mxCell id="8h7upjz-o76JEEFLU-vD-45" value="&lt;b&gt;&lt;font style=&quot;font-size: 15px;&quot;&gt;CHANNELS&lt;/font&gt;&lt;/b&gt;" style="rounded=0;whiteSpace=wrap;html=1;" parent="1" vertex="1">
          <mxGeometry x="200" y="260" width="120" height="40" as="geometry" />
        </mxCell>
        <mxCell id="8h7upjz-o76JEEFLU-vD-46" value="&lt;b&gt;&lt;font style=&quot;font-size: 15px;&quot;&gt;PRESETS&lt;/font&gt;&lt;/b&gt;" style="rounded=0;whiteSpace=wrap;html=1;" parent="1" vertex="1">
          <mxGeometry x="450" y="280" width="120" height="50" as="geometry" />
        </mxCell>
        <mxCell id="8h7upjz-o76JEEFLU-vD-47" value="&lt;b&gt;&lt;font style=&quot;font-size: 15px;&quot;&gt;CHANNELS&lt;/font&gt;&lt;/b&gt;" style="rounded=0;whiteSpace=wrap;html=1;" parent="1" vertex="1">
          <mxGeometry x="450" y="340" width="120" height="50" as="geometry" />
        </mxCell>
        <mxCell id="8h7upjz-o76JEEFLU-vD-48" value="&lt;div align=&quot;left&quot;&gt;&lt;b&gt;LAST-MIDI-IN-MESSAGE:&lt;/b&gt;&lt;/div&gt;" style="text;html=1;align=left;verticalAlign=middle;resizable=0;points=[];autosize=1;strokeColor=none;fillColor=none;" parent="1" vertex="1">
          <mxGeometry x="121" y="78" width="170" height="30" as="geometry" />
        </mxCell>
        <mxCell id="8h7upjz-o76JEEFLU-vD-49" value="&lt;div align=&quot;left&quot;&gt;&lt;b&gt;LAST-MIDI-OUT-MESSAGE:&lt;/b&gt;&lt;/div&gt;" style="text;html=1;align=left;verticalAlign=middle;resizable=0;points=[];autosize=1;strokeColor=none;fillColor=none;" parent="1" vertex="1">
          <mxGeometry x="121" y="108" width="180" height="30" as="geometry" />
        </mxCell>
        <mxCell id="8h7upjz-o76JEEFLU-vD-50" value="&lt;div align=&quot;left&quot;&gt;&lt;b&gt;LAST-MIDI-IN-MESSAGE:&lt;/b&gt;&lt;/div&gt;" style="text;html=1;align=left;verticalAlign=middle;resizable=0;points=[];autosize=1;strokeColor=none;fillColor=none;" parent="1" vertex="1">
          <mxGeometry x="440" y="420" width="170" height="30" as="geometry" />
        </mxCell>
        <mxCell id="8h7upjz-o76JEEFLU-vD-51" value="&lt;div align=&quot;left&quot;&gt;&lt;b&gt;LAST-MIDI-OUT-MESSAGE:&lt;/b&gt;&lt;/div&gt;" style="text;html=1;align=left;verticalAlign=middle;resizable=0;points=[];autosize=1;strokeColor=none;fillColor=none;" parent="1" vertex="1">
          <mxGeometry x="440" y="450" width="180" height="30" as="geometry" />
        </mxCell>
        <mxCell id="8h7upjz-o76JEEFLU-vD-52" value="" style="rounded=0;whiteSpace=wrap;html=1;" parent="1" vertex="1">
          <mxGeometry x="301" y="78" width="139" height="32" as="geometry" />
        </mxCell>
        <mxCell id="8h7upjz-o76JEEFLU-vD-53" value="" style="rounded=0;whiteSpace=wrap;html=1;" parent="1" vertex="1">
          <mxGeometry x="301" y="110" width="139" height="32" as="geometry" />
        </mxCell>
        <mxCell id="8h7upjz-o76JEEFLU-vD-54" value="" style="rounded=0;whiteSpace=wrap;html=1;" parent="1" vertex="1">
          <mxGeometry x="620" y="420" width="139" height="32" as="geometry" />
        </mxCell>
        <mxCell id="8h7upjz-o76JEEFLU-vD-55" value="" style="rounded=0;whiteSpace=wrap;html=1;" parent="1" vertex="1">
          <mxGeometry x="620" y="452" width="139" height="32" as="geometry" />
        </mxCell>
        <mxCell id="8h7upjz-o76JEEFLU-vD-56" value="" style="rounded=0;whiteSpace=wrap;html=1;" parent="1" vertex="1">
          <mxGeometry x="420" y="190" width="360" height="20" as="geometry" />
        </mxCell>
      </root>
    </mxGraphModel>
  </diagram>
</mxfile>
